<svg id="Layer_1" data-name="Layer 1" xmlns="http://www.w3.org/2000/svg" viewBox="0 0 266.65 229.4"><defs><style>.cls-1{fill:#fff;stroke:#b7bdca;stroke-miterlimit:2.61;stroke-width:12px;}.cls-2{fill:#b7bdca;fill-rule:evenodd;}</style></defs><title>selectfoto</title><rect class="cls-1" x="139.43" y="285.42" width="224" height="182" rx="28.35" ry="28.35" transform="translate(-190.9 -208.76) rotate(-11.14)"/><polygon class="cls-2" points="58.51 189.98 222.71 157.23 169.84 104.41 146.23 129.4 77.69 71.79 58.51 189.98"/><path class="cls-2" d="M296.77,304.17c-26,12.16-7.32,49.23,17.4,37.66A21,21,0,0,0,323.93,314C319.85,305.17,308,298.9,296.77,304.17Z" transform="translate(-122.9 -264.44)"/><rect class="cls-1" x="36.65" y="41.4" width="224" height="182" rx="28.35" ry="28.35"/><polygon class="cls-2" points="64.88 195.4 232.32 195 190.65 132.95 162.65 152.91 106.54 83.14 64.88 195.4"/><path class="cls-2" d="M330,334.71c-27.83,6.91-16.69,46.89,9.8,40.31a21,21,0,0,0,15-25.45C352.45,340.15,342.08,331.71,330,334.71Z" transform="translate(-122.9 -264.44)"/></svg>