<svg xmlns="http://www.w3.org/2000/svg" viewBox="0 0 47.29 48"><defs><style>.cls-1{fill:#6398d1;fill-rule:evenodd;}</style></defs><title>Asset 3</title><g id="Layer_2" data-name="Layer 2"><g id="Layer_1-2" data-name="Layer 1"><path class="cls-1" d="M23.65,0l5.58,4.67,6.24-1.45L38,10.09,44.13,12l-1.19,7.24L47.29,24l-4.6,5.67L44.13,36l-6.78,2.57-1.88,6.21-7.14-1.21L23.65,48l-5.58-4.67-6.24,1.45L9.29,37.91,3.17,36l1.19-7.24L0,24l4.6-5.67L3.17,12,9.94,9.43l1.88-6.21L19,4.42,23.65,0Zm8.53,16.47c-.29.43-10.08,10.12-11.23,11.27-.6.6-1.16,1.36-1.77,1.36-.38,0-3.48-3.51-4.17-4l-1,1.06,5.3,5.35,14-14Z"/></g></g></svg>